<svg xmlns="http://www.w3.org/2000/svg" viewBox="0 0 48 64"><defs><style>.cls-1{fill:#ba1d08;}.cls-2{fill:#ff2400;}.cls-3{fill:#ffda00;}.cls-4{fill:#ccae00;}</style></defs><title>Award</title><g id="Layer_2" data-name="Layer 2"><g id="Layer_1-2" data-name="Layer 1"><path class="cls-1" d="M16.76,26.24l14.49,5.86-13,30.73a2,2,0,0,1-3.29.52l-3.67-4.13-5.58.39a1.92,1.92,0,0,1-2-2.64Z"/><path class="cls-2" d="M16.76,32.09l14.49-5.86L44.28,57a1.92,1.92,0,0,1-2,2.64l-5.58-.39-3.67,4.13a2,2,0,0,1-3.29-.52Z"/><path class="cls-3" d="M47,25.9h0A3.44,3.44,0,0,0,47,21h0a3.44,3.44,0,0,1-.78-3.81h0a3.47,3.47,0,0,0-1.94-4.57h0A3.5,3.5,0,0,1,42,9.33h0a3.54,3.54,0,0,0-3.58-3.5h0a3.59,3.59,0,0,1-3.31-2.16h0a3.62,3.62,0,0,0-4.68-1.89h0A3.65,3.65,0,0,1,26.53,1h0a3.65,3.65,0,0,0-5.07,0s-2.57,1.3-3.91.76h0a3.62,3.62,0,0,0-4.68,1.89h0A3.59,3.59,0,0,1,9.56,5.84h0A3.54,3.54,0,0,0,6,9.33H6a3.5,3.5,0,0,1-2.21,3.23h0a3.47,3.47,0,0,0-1.94,4.57h0A3.44,3.44,0,0,1,1,21H1A3.44,3.44,0,0,0,1,25.9H1a3.44,3.44,0,0,1,.78,3.81h0a3.47,3.47,0,0,0,1.94,4.57h0A3.5,3.5,0,0,1,6,37.51H6A3.54,3.54,0,0,0,9.56,41h0a3.59,3.59,0,0,1,3.31,2.16h0a3.62,3.62,0,0,0,4.68,1.89h0a3.65,3.65,0,0,1,3.91.76h0a3.65,3.65,0,0,0,5.07,0h0a3.65,3.65,0,0,1,3.91-.76h0a3.62,3.62,0,0,0,4.68-1.89h0A3.59,3.59,0,0,1,38.44,41h0A3.54,3.54,0,0,0,42,37.51h0a3.5,3.5,0,0,1,2.21-3.23h0a3.47,3.47,0,0,0,1.94-4.57h0A3.44,3.44,0,0,1,47,25.9Z"/><path class="cls-4" d="M24,6.2A17.44,17.44,0,0,0,6.36,23.42,17.44,17.44,0,0,0,24,40.64,17.44,17.44,0,0,0,41.64,23.42,17.44,17.44,0,0,0,24,6.2Zm0,28.7A11.62,11.62,0,0,1,12.24,23.42,11.62,11.62,0,0,1,24,11.94,11.62,11.62,0,0,1,35.76,23.42,11.62,11.62,0,0,1,24,34.9Z"/></g></g></svg>